<svg width="12" height="12" viewBox="0 0 12 12" fill="none" xmlns="http://www.w3.org/2000/svg">
<path fill-rule="evenodd" clip-rule="evenodd" d="M1.5 12H2.5V11H1.5V12ZM0.999999 11.5V12H-1.38281e-06L-1.42652e-06 11H0.499999V11.5H0.999999ZM-1.44838e-06 10.5L-1.49209e-06 9.5H0.999998L0.999999 10.5H-1.44838e-06ZM12 12H11V11.5H11.5V11H12V12ZM11 0.5V4.3714e-08L12 0V1H11.5V0.5L11 0.5ZM-1.90735e-06 5.24538e-07L0.999998 4.80824e-07V0.5H0.499998L0.499998 1H-1.86364e-06L-1.90735e-06 5.24538e-07ZM0.999998 7.5V8.5H-1.5358e-06L-1.57951e-06 7.5H0.999998ZM0.999998 5.5V6.5H-1.62323e-06L-1.66694e-06 5.5H0.999998ZM0.999998 3.5L0.999998 4.5H-1.71065e-06L-1.75436e-06 3.5H0.999998ZM0.999998 1.5V2.5H-1.79807e-06L-1.84178e-06 1.5H0.999998ZM1.5 1V4.58975e-07L2.5 4.15261e-07V1L1.5 1ZM3.5 1V3.71547e-07L4.5 3.2784e-07V1H3.5ZM5.5 1V2.84126e-07L6.5 2.40412e-07V1H5.5ZM7.5 1V1.96706e-07L8.5 1.52992e-07V1L7.5 1ZM9.5 1V1.09278e-07L10.5 6.55709e-08V1H9.5ZM11 4.5V3.5H12V4.5H11ZM11 6.5V5.5H12V6.5H11ZM11 1.5H12V2.5H11V1.5ZM11 7.5H12V8.5H11V7.5ZM11 9.5H12V10.5H11V9.5ZM9.5 11H10.5V12H9.5V11ZM7.5 11H8.5V12H7.5V11ZM5.5 11H6.5V12H5.5V11ZM3.5 11H4.5V12H3.5V11ZM4 9H3L3 3L4 3L4 9Z" fill="#111111"/>
</svg>
