<svg width="78" height="23" viewBox="0 0 78 23" fill="none" xmlns="http://www.w3.org/2000/svg">
<path d="M2.496 12.36H0.864C0.816 13.416 0.952 14.32 1.272 15.072C1.608 15.824 2.08 16.44 2.688 16.92C3.296 17.4 4.032 17.76 4.896 18C5.76 18.224 6.696 18.336 7.704 18.336C8.712 18.336 9.576 18.24 10.296 18.048C11.016 17.872 11.616 17.64 12.096 17.352C12.592 17.048 12.976 16.712 13.248 16.344C13.536 15.976 13.752 15.616 13.896 15.264C14.056 14.896 14.152 14.552 14.184 14.232C14.232 13.912 14.256 13.656 14.256 13.464C14.256 12.76 14.136 12.16 13.896 11.664C13.672 11.168 13.352 10.752 12.936 10.416C12.536 10.064 12.064 9.776 11.52 9.552C10.992 9.312 10.424 9.112 9.816 8.952L5.64 7.92C5.288 7.84 4.952 7.736 4.632 7.608C4.328 7.48 4.056 7.312 3.816 7.104C3.576 6.896 3.384 6.648 3.24 6.36C3.112 6.056 3.048 5.704 3.048 5.304C3.048 4.664 3.168 4.128 3.408 3.696C3.648 3.264 3.96 2.92 4.344 2.664C4.744 2.392 5.2 2.2 5.712 2.088C6.24 1.96 6.784 1.896 7.344 1.896C7.952 1.896 8.528 1.984 9.072 2.16C9.632 2.32 10.12 2.568 10.536 2.904C10.968 3.224 11.312 3.632 11.568 4.128C11.84 4.608 11.992 5.176 12.024 5.832H13.656C13.656 4.952 13.48 4.184 13.128 3.528C12.792 2.856 12.336 2.296 11.76 1.848C11.184 1.4 10.512 1.064 9.744 0.839999C8.976 0.615999 8.168 0.503999 7.32 0.503999C6.12 0.503999 5.136 0.679999 4.368 1.032C3.6 1.368 2.992 1.784 2.544 2.28C2.112 2.776 1.816 3.304 1.656 3.864C1.496 4.424 1.416 4.912 1.416 5.328C1.416 6 1.52 6.568 1.728 7.032C1.952 7.496 2.24 7.888 2.592 8.208C2.944 8.528 3.352 8.784 3.816 8.976C4.296 9.168 4.784 9.328 5.28 9.456L9.096 10.392C9.496 10.488 9.904 10.616 10.32 10.776C10.736 10.92 11.112 11.112 11.448 11.352C11.8 11.592 12.08 11.888 12.288 12.24C12.512 12.592 12.624 13.008 12.624 13.488C12.624 14.112 12.472 14.648 12.168 15.096C11.864 15.528 11.48 15.888 11.016 16.176C10.568 16.448 10.08 16.648 9.552 16.776C9.024 16.904 8.536 16.968 8.088 16.968C7.304 16.968 6.568 16.896 5.88 16.752C5.192 16.592 4.592 16.336 4.08 15.984C3.584 15.632 3.192 15.16 2.904 14.568C2.616 13.976 2.48 13.24 2.496 12.36ZM16.5332 0.863999V18H18.0452V10.776C18.0612 10.168 18.1572 9.608 18.3332 9.096C18.5252 8.568 18.7812 8.12 19.1012 7.752C19.4372 7.368 19.8372 7.072 20.3012 6.864C20.7812 6.64 21.3252 6.528 21.9332 6.528C22.5412 6.528 23.0452 6.624 23.4452 6.816C23.8612 7.008 24.1892 7.272 24.4292 7.608C24.6692 7.944 24.8372 8.344 24.9332 8.808C25.0292 9.256 25.0772 9.744 25.0772 10.272V18H26.5892V10.032C26.5892 9.296 26.5172 8.632 26.3732 8.04C26.2292 7.448 25.9812 6.952 25.6292 6.552C25.2772 6.136 24.8052 5.816 24.2132 5.592C23.6372 5.368 22.9172 5.256 22.0532 5.256C21.1732 5.256 20.3652 5.488 19.6292 5.952C18.8932 6.4 18.3812 7 18.0932 7.752H18.0452V0.863999H16.5332ZM29.3038 9.408H30.8158C30.8478 8.4 31.1678 7.672 31.7758 7.224C32.3838 6.76 33.1678 6.528 34.1278 6.528C34.5758 6.528 34.9918 6.568 35.3758 6.648C35.7758 6.712 36.1198 6.84 36.4078 7.032C36.7118 7.224 36.9438 7.488 37.1038 7.824C37.2798 8.144 37.3678 8.56 37.3678 9.072C37.3678 9.408 37.3198 9.68 37.2238 9.888C37.1438 10.096 37.0238 10.264 36.8638 10.392C36.7038 10.504 36.5038 10.584 36.2638 10.632C36.0238 10.68 35.7438 10.72 35.4238 10.752C34.6078 10.848 33.7998 10.952 32.9998 11.064C32.2158 11.16 31.5038 11.336 30.8638 11.592C30.2398 11.848 29.7358 12.224 29.3518 12.72C28.9678 13.2 28.7758 13.872 28.7758 14.736C28.7758 15.36 28.8798 15.904 29.0878 16.368C29.3118 16.816 29.6078 17.192 29.9758 17.496C30.3598 17.784 30.7998 17.992 31.2958 18.12C31.8078 18.264 32.3518 18.336 32.9278 18.336C33.5358 18.336 34.0558 18.28 34.4878 18.168C34.9358 18.056 35.3278 17.896 35.6638 17.688C36.0158 17.48 36.3278 17.224 36.5998 16.92C36.8878 16.6 37.1678 16.24 37.4398 15.84H37.4878C37.4878 16.16 37.5038 16.456 37.5358 16.728C37.5838 16.984 37.6718 17.208 37.7998 17.4C37.9278 17.592 38.1038 17.744 38.3278 17.856C38.5678 17.952 38.8798 18 39.2638 18C39.4718 18 39.6398 17.992 39.7678 17.976C39.9118 17.96 40.0718 17.936 40.2478 17.904V16.632C40.1038 16.696 39.9438 16.728 39.7678 16.728C39.1758 16.728 38.8798 16.424 38.8798 15.816V9.24C38.8798 8.408 38.7438 7.736 38.4718 7.224C38.1998 6.696 37.8478 6.288 37.4158 6C36.9838 5.712 36.4958 5.52 35.9518 5.424C35.4078 5.312 34.8638 5.256 34.3198 5.256C33.5998 5.256 32.9438 5.336 32.3518 5.496C31.7598 5.656 31.2398 5.904 30.7918 6.24C30.3598 6.576 30.0158 7.008 29.7598 7.536C29.5038 8.064 29.3518 8.688 29.3038 9.408ZM37.3678 11.232V13.2C37.3678 13.808 37.2478 14.352 37.0078 14.832C36.7838 15.312 36.4718 15.72 36.0718 16.056C35.6878 16.392 35.2318 16.648 34.7038 16.824C34.1758 17 33.6238 17.088 33.0478 17.088C32.6958 17.088 32.3518 17.032 32.0158 16.92C31.6798 16.808 31.3838 16.648 31.1278 16.44C30.8718 16.216 30.6638 15.96 30.5038 15.672C30.3598 15.368 30.2878 15.024 30.2878 14.64C30.2878 14.032 30.4638 13.568 30.8158 13.248C31.1838 12.912 31.6478 12.656 32.2078 12.48C32.7678 12.304 33.3838 12.176 34.0558 12.096C34.7438 12 35.4078 11.896 36.0478 11.784C36.2558 11.752 36.4958 11.696 36.7678 11.616C37.0398 11.536 37.2238 11.408 37.3198 11.232H37.3678ZM41.8931 5.616V22.56H43.4051V15.648H43.4531C43.6131 16.096 43.8371 16.488 44.1251 16.824C44.4291 17.16 44.7731 17.44 45.1571 17.664C45.5411 17.888 45.9571 18.056 46.4051 18.168C46.8531 18.28 47.3011 18.336 47.7491 18.336C48.6931 18.336 49.5091 18.168 50.1971 17.832C50.9011 17.48 51.4851 17.008 51.9491 16.416C52.4131 15.808 52.7571 15.112 52.9811 14.328C53.2051 13.528 53.3171 12.688 53.3171 11.808C53.3171 10.928 53.2051 10.096 52.9811 9.312C52.7571 8.512 52.4131 7.816 51.9491 7.224C51.4851 6.616 50.9011 6.136 50.1971 5.784C49.5091 5.432 48.6931 5.256 47.7491 5.256C46.7411 5.256 45.8371 5.496 45.0371 5.976C44.2531 6.44 43.6851 7.104 43.3331 7.968H43.2851V5.616H41.8931ZM51.8051 11.808C51.8051 12.448 51.7251 13.088 51.5651 13.728C51.4211 14.352 51.1811 14.912 50.8451 15.408C50.5251 15.904 50.1091 16.312 49.5971 16.632C49.0851 16.936 48.4691 17.088 47.7491 17.088C46.9491 17.088 46.2691 16.936 45.7091 16.632C45.1651 16.312 44.7171 15.904 44.3651 15.408C44.0291 14.912 43.7811 14.352 43.6211 13.728C43.4771 13.088 43.4051 12.448 43.4051 11.808C43.4051 11.104 43.4691 10.432 43.5971 9.792C43.7411 9.152 43.9811 8.592 44.3171 8.112C44.6531 7.632 45.1011 7.248 45.6611 6.96C46.2211 6.672 46.9171 6.528 47.7491 6.528C48.4691 6.528 49.0851 6.688 49.5971 7.008C50.1091 7.312 50.5251 7.712 50.8451 8.208C51.1811 8.704 51.4211 9.272 51.5651 9.912C51.7251 10.536 51.8051 11.168 51.8051 11.808ZM64.5784 10.944H56.5624C56.6264 10.384 56.7544 9.84 56.9464 9.312C57.1544 8.768 57.4264 8.296 57.7624 7.896C58.0984 7.48 58.5064 7.152 58.9864 6.912C59.4664 6.656 60.0184 6.528 60.6424 6.528C61.2504 6.528 61.7944 6.656 62.2744 6.912C62.7544 7.152 63.1624 7.48 63.4984 7.896C63.8344 8.296 64.0904 8.76 64.2664 9.288C64.4584 9.816 64.5624 10.368 64.5784 10.944ZM56.5624 12.216H66.0904C66.1224 11.352 66.0424 10.504 65.8504 9.672C65.6584 8.824 65.3384 8.08 64.8904 7.44C64.4584 6.784 63.8904 6.256 63.1864 5.856C62.4824 5.456 61.6344 5.256 60.6424 5.256C59.6664 5.256 58.8184 5.448 58.0984 5.832C57.3944 6.2 56.8184 6.696 56.3704 7.32C55.9224 7.928 55.5864 8.624 55.3624 9.408C55.1544 10.192 55.0504 10.992 55.0504 11.808C55.0504 12.688 55.1544 13.528 55.3624 14.328C55.5864 15.112 55.9224 15.808 56.3704 16.416C56.8184 17.008 57.3944 17.48 58.0984 17.832C58.8184 18.168 59.6664 18.336 60.6424 18.336C62.2104 18.336 63.4184 17.952 64.2664 17.184C65.1304 16.416 65.7224 15.328 66.0424 13.92H64.5304C64.2904 14.88 63.8584 15.648 63.2344 16.224C62.6104 16.8 61.7464 17.088 60.6424 17.088C59.9224 17.088 59.3064 16.936 58.7944 16.632C58.2824 16.328 57.8584 15.944 57.5224 15.48C57.1864 15.016 56.9384 14.496 56.7784 13.92C56.6344 13.328 56.5624 12.76 56.5624 12.216ZM75.5357 9.24H77.0477C77.0157 8.568 76.8797 7.984 76.6397 7.488C76.3997 6.992 76.0717 6.576 75.6557 6.24C75.2557 5.904 74.7837 5.656 74.2397 5.496C73.7117 5.336 73.1357 5.256 72.5117 5.256C71.9677 5.256 71.4157 5.32 70.8557 5.448C70.3117 5.576 69.8157 5.776 69.3677 6.048C68.9197 6.32 68.5517 6.68 68.2637 7.128C67.9917 7.576 67.8557 8.112 67.8557 8.736C67.8557 9.264 67.9437 9.712 68.1197 10.08C68.2957 10.432 68.5357 10.736 68.8397 10.992C69.1597 11.232 69.5277 11.44 69.9437 11.616C70.3597 11.776 70.8157 11.92 71.3117 12.048L73.2557 12.48C73.5917 12.56 73.9197 12.656 74.2397 12.768C74.5757 12.88 74.8717 13.024 75.1277 13.2C75.3837 13.36 75.5837 13.568 75.7277 13.824C75.8877 14.064 75.9677 14.368 75.9677 14.736C75.9677 15.168 75.8557 15.536 75.6317 15.84C75.4237 16.128 75.1517 16.368 74.8157 16.56C74.4797 16.752 74.1117 16.888 73.7117 16.968C73.3277 17.048 72.9517 17.088 72.5837 17.088C71.5757 17.088 70.7277 16.832 70.0397 16.32C69.3677 15.792 68.9997 15.016 68.9357 13.992H67.4237C67.5517 15.512 68.0637 16.616 68.9597 17.304C69.8717 17.992 71.0557 18.336 72.5117 18.336C73.0877 18.336 73.6717 18.272 74.2637 18.144C74.8557 18.016 75.3837 17.808 75.8477 17.52C76.3277 17.216 76.7197 16.832 77.0237 16.368C77.3277 15.888 77.4797 15.312 77.4797 14.64C77.4797 14.096 77.3757 13.624 77.1677 13.224C76.9597 12.824 76.6877 12.488 76.3517 12.216C76.0317 11.944 75.6557 11.728 75.2237 11.568C74.8077 11.392 74.3837 11.272 73.9517 11.208L71.9357 10.752C71.6797 10.688 71.3997 10.608 71.0957 10.512C70.7917 10.4 70.5117 10.264 70.2557 10.104C69.9997 9.944 69.7837 9.752 69.6077 9.528C69.4477 9.288 69.3677 9 69.3677 8.664C69.3677 8.264 69.4557 7.928 69.6317 7.656C69.8077 7.384 70.0397 7.168 70.3277 7.008C70.6157 6.832 70.9277 6.712 71.2637 6.648C71.6157 6.568 71.9597 6.528 72.2957 6.528C72.7277 6.528 73.1357 6.584 73.5197 6.696C73.9037 6.792 74.2397 6.952 74.5277 7.176C74.8317 7.4 75.0717 7.688 75.2477 8.04C75.4237 8.376 75.5197 8.776 75.5357 9.24Z" fill="#111111"/>
</svg>
